<svg width="55" height="55" viewBox="0 0 55 55" fill="none" xmlns="http://www.w3.org/2000/svg">
<rect width="55" height="55" rx="27.5" fill="black"/>
<path d="M20.6644 14.332L28.2604 14.44C32.1964 14.44 35.0764 14.296 36.9004 14.008C37.1644 14.512 37.2964 15.088 37.2964 15.736C37.2964 16.384 37.0084 16.972 36.4324 17.5C35.8564 18.004 35.1604 18.256 34.3444 18.256L30.2044 17.788C30.2044 17.956 30.1444 18.7 30.0244 20.02C29.6884 23.26 29.5204 26.512 29.5204 29.776C29.5204 33.04 29.7724 36.304 30.2764 39.568C29.4844 39.856 28.6564 40 27.7924 40C26.9284 40 26.1844 39.76 25.5604 39.28C24.9364 38.776 24.6244 38.032 24.6244 37.048C24.6244 36.04 24.7444 34.276 24.9844 31.756C25.2244 29.236 25.3444 26.788 25.3444 24.412C25.3444 22.012 25.2244 19.78 24.9844 17.716C22.0804 17.86 19.8124 18.268 18.1804 18.94C17.8924 18.388 17.7484 17.776 17.7484 17.104C17.7484 16.408 18.0244 15.772 18.5764 15.196C19.1284 14.62 19.8244 14.332 20.6644 14.332Z" fill="white"/>
</svg>
