<svg width="40" height="40" viewBox="0 0 40 40" fill="none" xmlns="http://www.w3.org/2000/svg">
<!-- <circle cx="20" cy="20" r="20" fill="#EEEEEE"/> -->
<rect width="40" height="40" rx="20" fill="white"/>
<path d="M18.9822 31.096C18.4862 31.096 18.0462 30.968 17.6622 30.712C17.2942 30.456 17.1182 30.072 17.1342 29.56C17.1662 28.664 17.2302 27.672 17.3262 26.584C17.4382 25.496 17.5662 24.392 17.7102 23.272C17.8542 22.136 17.9982 21.048 18.1422 20.008C18.3022 18.968 18.4462 18.04 18.5742 17.224C18.2862 17.192 18.0062 17.168 17.7342 17.152C17.4622 17.136 17.2142 17.128 16.9902 17.128C16.3182 17.128 15.7102 17.192 15.1662 17.32C14.6382 17.448 14.1902 17.672 13.8222 17.992C13.8222 16.984 13.9022 16.168 14.0622 15.544C14.2382 14.904 14.5502 14.44 14.9982 14.152C15.4622 13.864 16.1342 13.72 17.0142 13.72C17.6542 13.72 18.3662 13.776 19.1502 13.888C19.9502 13.984 20.7582 14.088 21.5742 14.2C22.3902 14.312 23.1502 14.368 23.8542 14.368C24.4302 14.368 24.9422 14.312 25.3902 14.2C25.8542 14.088 26.2062 13.888 26.4462 13.6C26.7982 13.712 27.0702 13.96 27.2622 14.344C27.4542 14.712 27.5502 15.12 27.5502 15.568C27.5502 15.968 27.4622 16.36 27.2862 16.744C27.1102 17.112 26.8302 17.424 26.4462 17.68C26.0622 17.92 25.5422 18.04 24.8862 18.04C24.5822 18.04 24.2062 18.016 23.7582 17.968C23.3262 17.904 22.8622 17.84 22.3662 17.776C22.1902 18.736 22.0062 19.888 21.8142 21.232C21.6382 22.56 21.4862 23.992 21.3582 25.528C21.2462 27.064 21.1742 28.624 21.1422 30.208C20.8542 30.512 20.5102 30.736 20.1102 30.88C19.7262 31.024 19.3502 31.096 18.9822 31.096Z" fill="black"/>
</svg>
