<svg width="140" height="40" viewBox="0 0 140 40" fill="none" xmlns="http://www.w3.org/2000/svg">
<g id="Frame 6">
<g id="Group 8">
<circle id="Ellipse 1" cx="20" cy="20" r="20" fill="#4C4C4C"/>
<g id="Group 9">
<path id="T" d="M12.2024 9.74L16.4224 9.8C18.6091 9.8 20.2091 9.72 21.2224 9.56C21.3691 9.84 21.4424 10.16 21.4424 10.52C21.4424 10.88 21.2824 11.2067 20.9624 11.5C20.6424 11.78 20.2558 11.92 19.8024 11.92L17.5024 11.66C17.5024 11.7533 17.4691 12.1667 17.4024 12.9C17.2158 14.7 17.1224 16.5067 17.1224 18.32C17.1224 20.1333 17.2624 21.9467 17.5424 23.76C17.1024 23.92 16.6424 24 16.1624 24C15.6824 24 15.2691 23.8667 14.9224 23.6C14.5758 23.32 14.4024 22.9067 14.4024 22.36C14.4024 21.8 14.4691 20.82 14.6024 19.42C14.7358 18.02 14.8024 16.66 14.8024 15.34C14.8024 14.0067 14.7358 12.7667 14.6024 11.62C12.9891 11.7 11.7291 11.9267 10.8224 12.3C10.6624 11.9933 10.5824 11.6533 10.5824 11.28C10.5824 10.8933 10.7358 10.54 11.0424 10.22C11.3491 9.9 11.7358 9.74 12.2024 9.74Z" fill="white"/>
<path id="B" d="M19.4626 16.44C21.3826 15.9333 23.0559 15.68 24.4826 15.68C27.5359 15.68 29.0626 16.74 29.0626 18.86C29.0626 20.1533 28.4559 21.14 27.2426 21.82C28.0559 22.02 28.7292 22.4067 29.2626 22.98C29.7959 23.54 30.0626 24.2467 30.0626 25.1C30.0626 26.7 29.4692 27.94 28.2826 28.82C27.0959 29.6867 25.6292 30.12 23.8826 30.12C22.1359 30.12 20.6226 29.7733 19.3426 29.08C19.7559 27.64 19.9626 25.7 19.9626 23.26C19.9626 20.8067 19.7959 18.5333 19.4626 16.44ZM22.4826 27.96C23.0692 28.1467 23.6559 28.24 24.2426 28.24C25.1626 28.24 25.9226 28.0133 26.5226 27.56C27.1226 27.0933 27.4226 26.44 27.4226 25.6C27.4226 24 26.5559 23.2 24.8226 23.2C23.9959 23.2 23.1559 23.3733 22.3026 23.72C22.3026 25.0667 22.3626 26.48 22.4826 27.96ZM22.2826 21.96C22.4692 21.92 22.7426 21.8733 23.1026 21.82C23.4759 21.7667 23.7626 21.72 23.9626 21.68C24.1626 21.64 24.4092 21.58 24.7026 21.5C25.0092 21.42 25.2426 21.3267 25.4026 21.22C25.5759 21.1 25.7492 20.9533 25.9226 20.78C26.2559 20.4467 26.4226 19.96 26.4226 19.32C26.4226 18.08 25.6826 17.46 24.2026 17.46C23.7226 17.46 23.1359 17.54 22.4426 17.7C22.3359 20.4333 22.2826 21.8533 22.2826 21.96Z" fill="white"/>
</g>
</g>
<g id="Tadz" filter="url(#filter0_i_52_20)">
<path d="M67.6656 31.096C67.1696 31.096 66.7296 30.968 66.3456 30.712C65.9776 30.456 65.8016 30.072 65.8176 29.56C65.8496 28.664 65.9136 27.672 66.0096 26.584C66.1216 25.496 66.2496 24.392 66.3936 23.272C66.5376 22.136 66.6816 21.048 66.8256 20.008C66.9856 18.968 67.1296 18.04 67.2576 17.224C66.9696 17.192 66.6896 17.168 66.4176 17.152C66.1456 17.136 65.8976 17.128 65.6736 17.128C65.0016 17.128 64.3936 17.192 63.8496 17.32C63.3216 17.448 62.8736 17.672 62.5056 17.992C62.5056 16.984 62.5856 16.168 62.7456 15.544C62.9216 14.904 63.2336 14.44 63.6816 14.152C64.1456 13.864 64.8176 13.72 65.6976 13.72C66.3376 13.72 67.0496 13.776 67.8336 13.888C68.6336 13.984 69.4416 14.088 70.2576 14.2C71.0736 14.312 71.8336 14.368 72.5376 14.368C73.1136 14.368 73.6256 14.312 74.0736 14.2C74.5376 14.088 74.8896 13.888 75.1296 13.6C75.4816 13.712 75.7536 13.96 75.9456 14.344C76.1376 14.712 76.2336 15.12 76.2336 15.568C76.2336 15.968 76.1456 16.36 75.9696 16.744C75.7936 17.112 75.5136 17.424 75.1296 17.68C74.7456 17.92 74.2256 18.04 73.5696 18.04C73.2656 18.04 72.8896 18.016 72.4416 17.968C72.0096 17.904 71.5456 17.84 71.0496 17.776C70.8736 18.736 70.6896 19.888 70.4976 21.232C70.3216 22.56 70.1696 23.992 70.0416 25.528C69.9296 27.064 69.8576 28.624 69.8256 30.208C69.5376 30.512 69.1936 30.736 68.7936 30.88C68.4096 31.024 68.0336 31.096 67.6656 31.096ZM82.2527 31.12C81.6927 31.12 81.2047 30.936 80.7887 30.568C80.3727 30.2 80.1647 29.6 80.1647 28.768C80.1647 28.688 80.1647 28.608 80.1647 28.528C80.1647 28.448 80.1727 28.368 80.1887 28.288C79.7087 29.248 79.1647 29.96 78.5567 30.424C77.9647 30.872 77.3647 31.096 76.7567 31.096C76.1967 31.096 75.6687 30.904 75.1727 30.52C74.6767 30.12 74.2767 29.536 73.9727 28.768C73.6687 28 73.5167 27.072 73.5167 25.984C73.5167 24.864 73.6687 23.864 73.9727 22.984C74.2927 22.104 74.7087 21.36 75.2207 20.752C75.7327 20.144 76.2927 19.688 76.9007 19.384C77.5087 19.064 78.1007 18.904 78.6767 18.904C79.3167 18.904 79.8927 19.104 80.4047 19.504C80.9167 19.888 81.2687 20.504 81.4607 21.352C81.5087 21.08 81.5407 20.832 81.5567 20.608C81.5887 20.384 81.6047 20.232 81.6047 20.152C81.6207 19.72 81.8367 19.4 82.2527 19.192C82.6847 18.984 83.1567 18.88 83.6687 18.88C84.1167 18.88 84.5407 18.968 84.9407 19.144C85.3407 19.32 85.6127 19.616 85.7567 20.032L85.8047 20.176C85.6127 20.608 85.4207 21.128 85.2287 21.736C85.0367 22.344 84.8607 22.984 84.7007 23.656C84.5407 24.312 84.4127 24.96 84.3167 25.6C84.2207 26.224 84.1727 26.776 84.1727 27.256C84.1727 27.784 84.2287 28.152 84.3407 28.36C84.4527 28.552 84.5887 28.648 84.7487 28.648C85.0207 28.648 85.2687 28.456 85.4927 28.072L85.6847 28.168C85.6847 28.712 85.5087 29.208 85.1567 29.656C84.8047 30.104 84.3647 30.464 83.8367 30.736C83.3087 30.992 82.7807 31.12 82.2527 31.12ZM78.3407 28.072C78.7567 28.072 79.2127 27.704 79.7087 26.968C80.2207 26.216 80.6607 25.144 81.0287 23.752C81.0607 23.608 81.0927 23.472 81.1247 23.344C81.1567 23.2 81.1807 23.064 81.1967 22.936C80.9407 22.344 80.6687 21.928 80.3807 21.688C80.1087 21.432 79.8367 21.304 79.5647 21.304C79.1647 21.304 78.7887 21.52 78.4367 21.952C78.1007 22.368 77.8207 22.896 77.5967 23.536C77.3887 24.176 77.2847 24.816 77.2847 25.456C77.2847 26.336 77.3807 26.992 77.5727 27.424C77.7807 27.856 78.0367 28.072 78.3407 28.072ZM90.3784 31.096C89.8024 31.096 89.2584 30.896 88.7464 30.496C88.2504 30.096 87.8424 29.512 87.5224 28.744C87.2184 27.976 87.0664 27.048 87.0664 25.96C87.0664 24.84 87.2264 23.84 87.5464 22.96C87.8664 22.08 88.2824 21.336 88.7944 20.728C89.3224 20.104 89.8904 19.632 90.4984 19.312C91.1224 18.992 91.7304 18.832 92.3224 18.832C92.9784 18.832 93.5624 19.04 94.0744 19.456C94.5864 19.856 94.9384 20.488 95.1304 21.352C95.2744 20.552 95.3944 19.792 95.4904 19.072C95.6024 18.336 95.6584 17.688 95.6584 17.128C95.6584 16.392 95.5624 15.856 95.3704 15.52V15.376C95.7384 14.96 96.1384 14.656 96.5704 14.464C97.0184 14.256 97.4424 14.152 97.8424 14.152C98.3704 14.152 98.8184 14.32 99.1864 14.656C99.5544 14.976 99.7384 15.44 99.7384 16.048C99.7384 16.384 99.6824 16.88 99.5704 17.536C99.4584 18.192 99.3224 18.944 99.1624 19.792C99.0024 20.624 98.8344 21.488 98.6584 22.384C98.4984 23.264 98.3624 24.112 98.2504 24.928C98.1384 25.728 98.0824 26.424 98.0824 27.016C98.0824 27.512 98.1304 27.912 98.2264 28.216C98.3384 28.504 98.5144 28.648 98.7544 28.648C98.9304 28.648 99.1064 28.592 99.2824 28.48C99.4744 28.352 99.6024 28.208 99.6664 28.048L99.8344 28.168C99.8344 28.696 99.6664 29.184 99.3304 29.632C98.9944 30.064 98.5704 30.416 98.0584 30.688C97.5464 30.96 97.0184 31.096 96.4744 31.096C95.8824 31.096 95.4104 30.936 95.0584 30.616C94.7224 30.28 94.4824 29.856 94.3384 29.344C94.1944 28.832 94.1144 28.304 94.0984 27.76C93.6024 28.912 93.0184 29.76 92.3464 30.304C91.6904 30.832 91.0344 31.096 90.3784 31.096ZM91.9864 28.048C92.4024 28.048 92.8664 27.672 93.3784 26.92C93.8904 26.168 94.3384 25.072 94.7224 23.632L94.8664 22.888C94.6104 22.296 94.3304 21.88 94.0264 21.64C93.7384 21.384 93.4584 21.256 93.1864 21.256C92.7864 21.256 92.4104 21.48 92.0584 21.928C91.7064 22.36 91.4184 22.92 91.1944 23.608C90.9864 24.28 90.8824 24.992 90.8824 25.744C90.8824 26.464 90.9864 27.032 91.1944 27.448C91.4024 27.848 91.6664 28.048 91.9864 28.048ZM103.436 31.168C102.812 31.136 102.268 30.92 101.804 30.52C101.356 30.104 101.044 29.384 100.868 28.36C101.636 28.12 102.396 27.672 103.148 27.016C103.916 26.344 104.668 25.576 105.404 24.712C106.156 23.832 106.892 22.976 107.612 22.144C107.356 21.984 107.108 21.872 106.868 21.808C106.628 21.744 106.404 21.712 106.196 21.712C105.764 21.712 105.412 21.832 105.14 22.072C104.884 22.296 104.756 22.6 104.756 22.984C104.756 23.336 104.884 23.736 105.14 24.184C104.948 24.216 104.764 24.24 104.588 24.256C104.412 24.272 104.252 24.28 104.108 24.28C103.1 24.28 102.356 24.016 101.876 23.488C101.396 22.96 101.156 22.376 101.156 21.736C101.156 21.272 101.268 20.824 101.492 20.392C101.732 19.944 102.084 19.584 102.548 19.312C103.012 19.024 103.572 18.88 104.228 18.88C104.836 18.88 105.516 19.032 106.268 19.336C107.036 19.624 107.876 20.12 108.788 20.824C109.252 20.328 109.7 19.888 110.132 19.504C110.58 19.12 111.028 18.824 111.476 18.616C112.356 18.76 112.98 19.072 113.348 19.552C113.732 20.016 113.924 20.512 113.924 21.04C113.924 21.136 113.916 21.224 113.9 21.304C113.9 21.384 113.892 21.464 113.876 21.544C112.9 21.944 112.06 22.48 111.356 23.152C110.668 23.808 110.028 24.536 109.436 25.336C108.844 26.12 108.196 26.92 107.492 27.736C107.78 27.976 108.06 28.152 108.332 28.264C108.604 28.36 108.852 28.408 109.076 28.408C109.508 28.408 109.86 28.264 110.132 27.976C110.404 27.672 110.54 27.32 110.54 26.92C110.54 26.792 110.524 26.664 110.492 26.536C110.476 26.408 110.428 26.28 110.348 26.152C110.54 26.12 110.724 26.096 110.9 26.08C111.092 26.048 111.276 26.032 111.452 26.032C112.348 26.032 113.004 26.264 113.42 26.728C113.836 27.176 114.044 27.696 114.044 28.288C114.044 28.736 113.924 29.184 113.684 29.632C113.444 30.08 113.092 30.448 112.628 30.736C112.164 31.024 111.604 31.168 110.948 31.168C110.34 31.168 109.644 31 108.86 30.664C108.092 30.328 107.252 29.768 106.34 28.984C105.94 29.384 105.5 29.768 105.02 30.136C104.54 30.504 104.012 30.848 103.436 31.168Z" fill="white"/>
</g>
</g>
<defs>
<filter id="filter0_i_52_20" x="62.5056" y="13.6" width="51.5387" height="21.568" filterUnits="userSpaceOnUse" color-interpolation-filters="sRGB">
<feFlood flood-opacity="0" result="BackgroundImageFix"/>
<feBlend mode="normal" in="SourceGraphic" in2="BackgroundImageFix" result="shape"/>
<feColorMatrix in="SourceAlpha" type="matrix" values="0 0 0 0 0 0 0 0 0 0 0 0 0 0 0 0 0 0 127 0" result="hardAlpha"/>
<feOffset dy="4"/>
<feGaussianBlur stdDeviation="2"/>
<feComposite in2="hardAlpha" operator="arithmetic" k2="-1" k3="1"/>
<feColorMatrix type="matrix" values="0 0 0 0 0 0 0 0 0 0 0 0 0 0 0 0 0 0 0.25 0"/>
<feBlend mode="color-burn" in2="shape" result="effect1_innerShadow_52_20"/>
</filter>
</defs>
</svg>
