<svg width="40" height="40" viewBox="0 0 40 40" fill="none" xmlns="http://www.w3.org/2000/svg">
<circle cx="20" cy="20" r="20" fill="#9A5E2D"/>
<path d="M12.2024 9.74L16.4224 9.8C18.6091 9.8 20.2091 9.72 21.2224 9.56C21.3691 9.84 21.4424 10.16 21.4424 10.52C21.4424 10.88 21.2824 11.2067 20.9624 11.5C20.6424 11.78 20.2558 11.92 19.8024 11.92L17.5024 11.66C17.5024 11.7533 17.4691 12.1667 17.4024 12.9C17.2158 14.7 17.1224 16.5067 17.1224 18.32C17.1224 20.1333 17.2624 21.9467 17.5424 23.76C17.1024 23.92 16.6424 24 16.1624 24C15.6824 24 15.2691 23.8667 14.9224 23.6C14.5758 23.32 14.4024 22.9067 14.4024 22.36C14.4024 21.8 14.4691 20.82 14.6024 19.42C14.7358 18.02 14.8024 16.66 14.8024 15.34C14.8024 14.0067 14.7358 12.7667 14.6024 11.62C12.9891 11.7 11.7291 11.9267 10.8224 12.3C10.6624 11.9933 10.5824 11.6533 10.5824 11.28C10.5824 10.8933 10.7358 10.54 11.0424 10.22C11.3491 9.9 11.7358 9.74 12.2024 9.74Z" fill="#EEEEEE"/>
<path d="M19.4626 16.44C21.3826 15.9333 23.0559 15.68 24.4826 15.68C27.5359 15.68 29.0626 16.74 29.0626 18.86C29.0626 20.1533 28.4559 21.14 27.2426 21.82C28.0559 22.02 28.7292 22.4067 29.2626 22.98C29.7959 23.54 30.0626 24.2467 30.0626 25.1C30.0626 26.7 29.4692 27.94 28.2826 28.82C27.0959 29.6867 25.6292 30.12 23.8826 30.12C22.1359 30.12 20.6226 29.7733 19.3426 29.08C19.7559 27.64 19.9626 25.7 19.9626 23.26C19.9626 20.8067 19.7959 18.5333 19.4626 16.44ZM22.4826 27.96C23.0692 28.1467 23.6559 28.24 24.2426 28.24C25.1626 28.24 25.9226 28.0133 26.5226 27.56C27.1226 27.0933 27.4226 26.44 27.4226 25.6C27.4226 24 26.5559 23.2 24.8226 23.2C23.9959 23.2 23.1559 23.3733 22.3026 23.72C22.3026 25.0667 22.3626 26.48 22.4826 27.96ZM22.2826 21.96C22.4692 21.92 22.7426 21.8733 23.1026 21.82C23.4759 21.7667 23.7626 21.72 23.9626 21.68C24.1626 21.64 24.4092 21.58 24.7026 21.5C25.0092 21.42 25.2426 21.3267 25.4026 21.22C25.5759 21.1 25.7492 20.9533 25.9226 20.78C26.2559 20.4467 26.4226 19.96 26.4226 19.32C26.4226 18.08 25.6826 17.46 24.2026 17.46C23.7226 17.46 23.1359 17.54 22.4426 17.7C22.3359 20.4333 22.2826 21.8533 22.2826 21.96Z" fill="#EEEEEE"/>
</svg>
